<svg xmlns="http://www.w3.org/2000/svg" xmlns:xlink="http://www.w3.org/1999/xlink" width="366.674" height="107.976" viewBox="0 0 366.674 107.976">
  <defs>
    <clipPath id="clip-path">
      <path id="Path_16" data-name="Path 16" d="M135.079,179.54h-11.9l-18.9-12.287a19.578,19.578,0,0,1-8.907-16.414v-39.26a6.717,6.717,0,0,1,5.667-6.634l19.895-3.141a8.693,8.693,0,0,0,1.674-.435l37.329-13.713a200.627,200.627,0,0,1,61.927-12.173c15.769-.57,34.642-1.253,49.943-1.808A114.035,114.035,0,0,1,326.232,85.3l34.655,17.036a9.671,9.671,0,0,0,3.109.923c31.591,3.9,69,14.715,91.7,27.629a10.082,10.082,0,0,1,4.792,9.532c-.541,6.169-1.429,15.84-2.182,24.022a16.623,16.623,0,0,1-16.553,15.1H416.12a36.155,36.155,0,1,0-68.072,0h-144.9a36.155,36.155,0,1,0-68.072,0Z" transform="translate(-95.37 -73.6)" fill="none" stroke="#707070" stroke-width="1.5"/>
    </clipPath>
    <linearGradient id="linear-gradient" x1="0.5" y1="-0.385" x2="0.5" y2="1" gradientUnits="objectBoundingBox">
      <stop offset="0" stop-color="#fff"/>
      <stop offset="1" stop-color="#129be4"/>
    </linearGradient>
    <linearGradient id="linear-gradient-2" x1="0.5" x2="0.5" y2="1" gradientUnits="objectBoundingBox">
      <stop offset="0" stop-color="#5bba21"/>
      <stop offset="1" stop-color="#5bba21"/>
    </linearGradient>
  </defs>
  <g id="Group_3" data-name="Group 3" transform="translate(-489.25 -222.24)">
    <rect id="Rectangle_1" data-name="Rectangle 1" width="300.366" height="45.889" transform="translate(523.371 276.204)" fill="#ebebeb" stroke="#707070" stroke-width="1.5"/>
    <rect id="Rectangle_2" data-name="Rectangle 2" width="300.366" height="45.889" transform="translate(523.371 276.204)" stroke-width="1.5" stroke="#575757" stroke-linecap="round" stroke-linejoin="round" fill="none"/>
    <path id="Path_1" data-name="Path 1" d="M135.079,179.54h-11.9l-18.9-12.287a19.578,19.578,0,0,1-8.907-16.414v-39.26a6.717,6.717,0,0,1,5.667-6.634l19.895-3.141a8.693,8.693,0,0,0,1.674-.435l37.329-13.713a200.627,200.627,0,0,1,61.927-12.173c15.769-.57,34.642-1.253,49.943-1.808A114.035,114.035,0,0,1,326.232,85.3l34.655,17.036a9.671,9.671,0,0,0,3.109.923c31.591,3.9,69,14.715,91.7,27.629a10.082,10.082,0,0,1,4.792,9.532c-.541,6.169-1.429,15.84-2.182,24.022a16.623,16.623,0,0,1-16.553,15.1H416.12a36.155,36.155,0,1,0-68.072,0h-144.9a36.155,36.155,0,1,0-68.072,0Z" transform="translate(394.628 149.505)" fill="#fff" stroke="#707070" stroke-width="1.5" fill-rule="evenodd"/>
    <g id="Group_2" data-name="Group 2" transform="translate(489.998 223.104)">
      <g id="Group_1" data-name="Group 1" clip-path="url(#clip-path)">
        <path id="Path_2" data-name="Path 2" d="M0,0H379.629V15.3H0Z" transform="translate(-5.563 90.644)" fill="#ebebeb"/>
        <path id="Path_3" data-name="Path 3" d="M95.37,104.784h20.143a4.266,4.266,0,0,1,3.625,6.516c-2.151,3.465-4.757,7.666-6.762,10.9a10.861,10.861,0,0,1-9.228,5.133H95.37Z" transform="translate(-95.37 -61.419)" fill="#129be4" fill-rule="evenodd"/>
        <line id="Line_1" data-name="Line 1" x2="12.205" transform="translate(-0.001 51.708)" fill="none" stroke="#575757" stroke-linecap="round" stroke-linejoin="round" stroke-width="1.5"/>
        <path id="Path_4" data-name="Path 4" d="M95.37,104.784h20.143a4.266,4.266,0,0,1,3.625,6.516c-2.151,3.465-4.757,7.666-6.762,10.9a10.861,10.861,0,0,1-9.228,5.133h-.825" transform="translate(-95.37 -61.419)" fill="none" stroke="#575757" stroke-linecap="round" stroke-linejoin="round" stroke-width="1.5"/>
        <path id="Path_5" data-name="Path 5" d="M148.419,107.784a47.3,47.3,0,0,1,47.28,47.28" transform="translate(-74.65 -60.248)" fill="none" stroke="#575757" stroke-linecap="round" stroke-linejoin="round" stroke-width="1.5"/>
        <path id="Path_6" data-name="Path 6" d="M255.739,106.045l65.708,2.45a47.307,47.307,0,0,1,45.458,44.467" transform="translate(-32.733 -60.927)" fill="none" stroke="#575757" stroke-linecap="round" stroke-linejoin="round" stroke-width="1.5"/>
        <path id="Path_7" data-name="Path 7" d="M276.846,121.73a47.052,47.052,0,0,0-9.107,27.887" transform="translate(-28.046 -54.801)" fill="none" stroke="#575757" stroke-linecap="round" stroke-linejoin="round" stroke-width="1.5"/>
        <line id="Line_2" data-name="Line 2" x2="117.322" transform="translate(122.371 90.644)" fill="none" stroke="#575757" stroke-linecap="round" stroke-linejoin="round" stroke-width="1.5"/>
        <line id="Line_3" data-name="Line 3" x2="22.249" transform="translate(5.631 90.644)" fill="none" stroke="#575757" stroke-linecap="round" stroke-linejoin="round" stroke-width="1.5"/>
        <line id="Line_4" data-name="Line 4" y2="36.155" transform="translate(165.479 46.146)" fill="none" stroke="#575757" stroke-linecap="round" stroke-linejoin="round" stroke-width="1.5"/>
        <line id="Line_5" data-name="Line 5" x1="40.327" y1="1.936" transform="translate(52.842 29.447)" fill="none" stroke="#575757" stroke-linecap="round" stroke-linejoin="round" stroke-width="1.5"/>
        <line id="Line_6" data-name="Line 6" x1="12.515" y1="0.601" transform="translate(174.775 42.764)" fill="none" stroke="#575757" stroke-linecap="round" stroke-linejoin="round" stroke-width="1.5"/>
        <line id="Line_7" data-name="Line 7" x1="12.515" y1="0.601" transform="translate(99.683 39.019)" fill="none" stroke="#575757" stroke-linecap="round" stroke-linejoin="round" stroke-width="1.5"/>
        <path id="Path_8" data-name="Path 8" d="M220.6,105.316l-62.291-2.81c-6.456-1.638-10.644-4.272-13.529-7.479a2.109,2.109,0,0,1,.758-3.292c6.349-2.524,24.6-8.827,53.1-11.479a470.34,470.34,0,0,1,48.645-1.623Zm50.83-25.543a94.833,94.833,0,0,1,26.411,7.484c13.5,6.174,26.165,12.667,38.2,19.446a2.018,2.018,0,0,1-1.087,3.77L244.8,106.407Z" transform="translate(-76.266 -71.656)" stroke="#707070" stroke-width="1.5" fill-rule="evenodd" fill="url(#linear-gradient)"/>
        <path id="Path_9" data-name="Path 9" d="M227.326,78.7c13.472-.289,26.016-.022,35.553.342a94.8,94.8,0,0,1,34.962,8.217c13.5,6.174,26.165,12.667,38.2,19.446a2.018,2.018,0,0,1-1.087,3.77L158.31,102.5c-6.456-1.638-10.644-4.272-13.529-7.479a2.109,2.109,0,0,1,.758-3.292c6.349-2.524,24.6-8.827,53.1-11.479" transform="translate(-76.266 -71.656)" fill="none" stroke="#575757" stroke-linecap="round" stroke-linejoin="round" stroke-width="1.5"/>
        <path id="Path_10" data-name="Path 10" d="M255.739,95.356a1.5,1.5,0,0,1,1.506-1.506h10.617a5.954,5.954,0,0,1,5.954,5.954h0a5.956,5.956,0,0,1-5.954,5.954H257.245a1.505,1.505,0,0,1-1.506-1.506Z" transform="translate(-32.733 -65.69)" stroke="#707070" stroke-width="1.5" fill-rule="evenodd" fill="url(#linear-gradient-2)"/>
        <path id="Path_11" data-name="Path 11" d="M255.739,95.356a1.5,1.5,0,0,1,1.506-1.506h10.617a5.954,5.954,0,0,1,5.954,5.954h0a5.956,5.956,0,0,1-5.954,5.954H257.245a1.505,1.505,0,0,1-1.506-1.506Z" transform="translate(-32.733 -65.69)" fill="none" stroke="#575757" stroke-linecap="round" stroke-linejoin="round" stroke-width="1.5"/>
        <path id="Path_12" data-name="Path 12" d="M360.97,121.3c-5.358-3.382-19.824-9.185-30.593-12.515-.293,3.725,1.931,11.29,11.125,15.3C347.108,126.524,356.429,126.545,360.97,121.3Z" transform="translate(-3.59 -59.857)" fill="#129be4" fill-rule="evenodd"/>
        <path id="Path_13" data-name="Path 13" d="M339.8,111.977c-3.241-1.182-6.469-2.281-9.42-3.193-.293,3.725,1.931,11.29,11.125,15.3,5.607,2.443,14.928,2.464,19.468-2.781" transform="translate(-3.59 -59.857)" fill="none" stroke="#575757" stroke-linecap="round" stroke-linejoin="round" stroke-width="1.5"/>
        <path id="Path_14" data-name="Path 14" d="M342.474,135.628a9.234,9.234,0,0,0,9.232,9.233h9.786l.845-9.758-19.864-8.32Z" transform="translate(1.144 -52.827)" fill="#129be4" stroke="#575757" stroke-width="1.5" fill-rule="evenodd"/>
        <path id="Path_15" data-name="Path 15" d="M342.474,126.784s.918,5.973,1.7,11.052a8.286,8.286,0,0,0,8.189,7.025h8.189" transform="translate(1.144 -52.827)" fill="none"/>
      </g>
    </g>
    <path id="Path_17" data-name="Path 17" d="M169.115,131.2a36.172,36.172,0,0,0-34.036,48.371h-11.9l-18.9-12.287a19.578,19.578,0,0,1-8.907-16.414V111.61a6.717,6.717,0,0,1,5.667-6.634l19.895-3.141a8.7,8.7,0,0,0,1.674-.435l37.329-13.713a200.59,200.59,0,0,1,32.025-8.833c20.582-3.88,53.419-5.984,79.844-5.148,18.827.6,37.523,3.312,54.427,11.622l34.655,17.036a9.672,9.672,0,0,0,3.109.923c31.591,3.9,69,14.715,91.7,27.629a10.082,10.082,0,0,1,4.792,9.532c-.541,6.169-1.429,15.84-2.182,24.022a16.623,16.623,0,0,1-16.553,15.1H416.12a36.192,36.192,0,0,0-3.764-31.983" transform="translate(394.628 149.476)" fill="none" stroke="#575757" stroke-linecap="round" stroke-linejoin="round" stroke-width="1.5"/>
    <path id="Path_18" data-name="Path 18" d="M353.99,115a36.172,36.172,0,0,0-34.036,48.371h-144.9a36.174,36.174,0,0,0-7.757-37.038" transform="translate(422.723 165.676)" fill="none" stroke="#575757" stroke-linecap="round" stroke-linejoin="round" stroke-width="1.5"/>
  </g>
</svg>
