<svg xmlns="http://www.w3.org/2000/svg" width="109" height="38" viewBox="0 0 109 38" fill="none"><path d="M92.7171 38C82.9839 38 76.6416 31.2181 76.6416 21.1081C76.6416 11.1237 83.0467 4.59304 92.4659 4.59304C102.325 4.59304 108.227 10.9353 108.227 21.1081C108.227 22.364 108.165 23.6827 108.039 24.9386H86.5004C86.9399 28.0784 89.1378 29.7111 92.7799 29.7111C95.0937 29.7111 96.555 28.8585 97.2127 27.7914C97.3143 27.6266 97.4873 27.5132 97.6809 27.5132H107.058C107.392 27.5132 107.632 27.8336 107.528 28.1503C105.569 34.0757 100.783 38 92.7171 38ZM86.4376 17.4032H98.1175C98.1175 14.4519 96.2336 12.5052 92.4659 12.5052C88.8238 12.5052 86.6888 14.3891 86.4376 17.4032Z" fill="#00FFB3"></path><path d="M59.6356 38C49.9023 38 43.56 31.2181 43.56 21.1081C43.56 11.1237 49.9651 4.59304 59.3844 4.59304C69.2432 4.59304 75.1459 10.9353 75.1459 21.1081C75.1459 22.364 75.0831 23.6827 74.9576 24.9386H53.4189C53.8584 28.0784 56.0562 29.7111 59.6984 29.7111C62.0122 29.7111 63.4735 28.8585 64.1312 27.7914C64.2328 27.6266 64.4058 27.5132 64.5994 27.5132H73.9768C74.3104 27.5132 74.5508 27.8336 74.4461 28.1503C72.4876 34.0757 67.7016 38 59.6356 38ZM53.3561 17.4032H65.0359C65.0359 14.4519 63.1521 12.5052 59.3844 12.5052C55.7423 12.5052 53.6072 14.3891 53.3561 17.4032Z" fill="#00FFB3"></path><path d="M23.3391 36.9956C23.0625 36.9956 22.8382 36.7714 22.8382 36.4948V6.09897C22.8382 5.82236 23.0625 5.59812 23.3391 5.59812H31.0285C31.3051 5.59812 31.5294 5.82236 31.5294 6.09897V8.30791C31.5294 8.9614 31.482 9.61403 31.3877 10.2607L31.0773 12.3886H32.6576C33.3501 8.20239 36.0433 5.59812 39.7724 5.59812H44.9035L44.553 10.6801C44.3695 13.34 42.1582 15.404 39.4919 15.404H37.909C34.5181 15.404 32.8854 16.9111 32.8854 20.1765V36.4948C32.8854 36.7714 32.6612 36.9956 32.3846 36.9956H23.3391Z" fill="#00FFB3"></path><path d="M8.66572 36.9952C2.76298 36.9952 0 34.609 0 28.3295V0.500853C0 0.224239 0.224239 0 0.500853 0H9.54635C9.82297 0 10.0472 0.224239 10.0472 0.500853V5.59765H20.4055C20.6821 5.59765 20.9063 5.82189 20.9063 6.0985V13.8881C20.9063 14.1647 20.6821 14.389 20.4055 14.389H10.0472V25.7549C10.0472 27.3875 10.6752 28.2039 12.4962 28.2039H20.4055C20.6821 28.2039 20.9063 28.4281 20.9063 28.7047V36.4943C20.9063 36.7709 20.6821 36.9952 20.4055 36.9952H8.66572Z" fill="#00FFB3"></path></svg>